<svg width="18" height="18" viewBox="0 0 18 18" fill="none" xmlns="http://www.w3.org/2000/svg">
<path d="M16.2004 18H1.80039C1.5617 18 1.33278 17.9052 1.16399 17.7364C0.995212 17.5676 0.900391 17.3387 0.900391 17.1V0.9C0.900391 0.661305 0.995212 0.432387 1.16399 0.263604C1.33278 0.0948211 1.5617 0 1.80039 0H16.2004C16.4391 0 16.668 0.0948211 16.8368 0.263604C17.0056 0.432387 17.1004 0.661305 17.1004 0.9V17.1C17.1004 17.3387 17.0056 17.5676 16.8368 17.7364C16.668 17.9052 16.4391 18 16.2004 18ZM15.3004 16.2V1.8H2.70039V16.2H15.3004ZM5.40039 4.5H12.6004V6.3H5.40039V4.5ZM5.40039 8.1H12.6004V9.9H5.40039V8.1ZM5.40039 11.7H9.90039V13.5H5.40039V11.7Z" fill="#525866"/>
</svg>
