<svg width="36" height="36" viewBox="0 0 36 36" fill="none" xmlns="http://www.w3.org/2000/svg">
<g filter="url(#filter0_d_2929_4759)">
<rect x="2" y="1" width="32" height="32" rx="6" fill="white"/>
<rect x="2.5" y="1.5" width="31" height="31" rx="5.5" stroke="#E2E4E9"/>
<path d="M14.1154 22.0945C13.8436 22.0945 13.61 21.9983 13.4144 21.8061C13.2189 21.6106 13.1211 21.3752 13.1211 21.1001C13.1211 20.8284 13.2189 20.5964 13.4144 20.4041C13.61 20.2086 13.8436 20.1108 14.1154 20.1108C14.3872 20.1108 14.6209 20.2086 14.8164 20.4041C15.012 20.5964 15.1097 20.8284 15.1097 21.1001C15.1097 21.2824 15.0633 21.4498 14.9705 21.6023C14.8811 21.7514 14.7617 21.8707 14.6126 21.9602C14.4634 22.0497 14.2977 22.0945 14.1154 22.0945ZM17.9963 22.0945C17.7245 22.0945 17.4908 21.9983 17.2953 21.8061C17.0997 21.6106 17.002 21.3752 17.002 21.1001C17.002 20.8284 17.0997 20.5964 17.2953 20.4041C17.4908 20.2086 17.7245 20.1108 17.9963 20.1108C18.2681 20.1108 18.5017 20.2086 18.6973 20.4041C18.8928 20.5964 18.9906 20.8284 18.9906 21.1001C18.9906 21.2824 18.9442 21.4498 18.8514 21.6023C18.7619 21.7514 18.6426 21.8707 18.4934 21.9602C18.3443 22.0497 18.1786 22.0945 17.9963 22.0945ZM21.8771 22.0945C21.6053 22.0945 21.3717 21.9983 21.1761 21.8061C20.9806 21.6106 20.8828 21.3752 20.8828 21.1001C20.8828 20.8284 20.9806 20.5964 21.1761 20.4041C21.3717 20.2086 21.6053 20.1108 21.8771 20.1108C22.1489 20.1108 22.3826 20.2086 22.5781 20.4041C22.7737 20.5964 22.8714 20.8284 22.8714 21.1001C22.8714 21.2824 22.825 21.4498 22.7322 21.6023C22.6427 21.7514 22.5234 21.8707 22.3743 21.9602C22.2251 22.0497 22.0594 22.0945 21.8771 22.0945Z" fill="#525866"/>
</g>
<defs>
<filter id="filter0_d_2929_4759" x="0" y="0" width="36" height="36" filterUnits="userSpaceOnUse" color-interpolation-filters="sRGB">
<feFlood flood-opacity="0" result="BackgroundImageFix"/>
<feColorMatrix in="SourceAlpha" type="matrix" values="0 0 0 0 0 0 0 0 0 0 0 0 0 0 0 0 0 0 127 0" result="hardAlpha"/>
<feOffset dy="1"/>
<feGaussianBlur stdDeviation="1"/>
<feComposite in2="hardAlpha" operator="out"/>
<feColorMatrix type="matrix" values="0 0 0 0 0.894118 0 0 0 0 0.898039 0 0 0 0 0.905882 0 0 0 0.24 0"/>
<feBlend mode="normal" in2="BackgroundImageFix" result="effect1_dropShadow_2929_4759"/>
<feBlend mode="normal" in="SourceGraphic" in2="effect1_dropShadow_2929_4759" result="shape"/>
</filter>
</defs>
</svg>
