<svg width="20" height="20" viewBox="0 0 20 20" fill="none" xmlns="http://www.w3.org/2000/svg">
<g id="archive-line">
<path id="Vector" d="M3.25 8.5H2.5V4.00225C2.5 3.58675 2.84125 3.25 3.244 3.25H16.756C16.8545 3.24979 16.952 3.26917 17.0429 3.307C17.1338 3.34484 17.2162 3.40037 17.2855 3.47038C17.3547 3.54038 17.4093 3.62345 17.4462 3.71477C17.483 3.80608 17.5013 3.9038 17.5 4.00225V8.5H16.75V16.0008C16.7503 16.0988 16.7313 16.196 16.694 16.2868C16.6567 16.3775 16.602 16.46 16.5328 16.5296C16.4636 16.5992 16.3815 16.6545 16.2909 16.6923C16.2004 16.7301 16.1033 16.7497 16.0052 16.75H3.99475C3.89665 16.7497 3.79957 16.7301 3.70906 16.6923C3.61854 16.6545 3.53636 16.5992 3.4672 16.5296C3.39804 16.46 3.34327 16.3775 3.306 16.2868C3.26873 16.196 3.2497 16.0988 3.25 16.0008V8.5ZM15.25 8.5H4.75V15.25H15.25V8.5ZM4 4.75V7H16V4.75H4ZM7.75 10H12.25V11.5H7.75V10Z" fill="#525866"/>
</g>
</svg>
