<svg width="15" height="16" viewBox="0 0 15 16" fill="none" xmlns="http://www.w3.org/2000/svg">
<path d="M3.75 3.5V1.25C3.75 1.05109 3.82902 0.860322 3.96967 0.71967C4.11032 0.579018 4.30109 0.5 4.5 0.5H13.5C13.6989 0.5 13.8897 0.579018 14.0303 0.71967C14.171 0.860322 14.25 1.05109 14.25 1.25V11.75C14.25 11.9489 14.171 12.1397 14.0303 12.2803C13.8897 12.421 13.6989 12.5 13.5 12.5H11.25V14.75C11.25 15.164 10.9125 15.5 10.4948 15.5H1.50525C1.40635 15.5006 1.3083 15.4816 1.21674 15.4442C1.12519 15.4068 1.04192 15.3517 0.971744 15.282C0.901563 15.2123 0.845845 15.1294 0.807791 15.0381C0.769737 14.9468 0.750097 14.8489 0.75 14.75L0.75225 4.25C0.75225 3.836 1.08975 3.5 1.50675 3.5H3.75ZM2.2515 5L2.25 14H9.75V5H2.2515ZM5.25 3.5H11.25V11H12.75V2H5.25V3.5ZM3.75 7.25H8.25V8.75H3.75V7.25ZM3.75 10.25H8.25V11.75H3.75V10.25Z" fill="#35B9E9"/>
</svg>
