<svg width="16" height="16" viewBox="0 0 16 16" fill="none" xmlns="http://www.w3.org/2000/svg">
<path d="M2.59961 8.60001H6.19961V7.40001H2.59961V1.90761C2.59962 1.85548 2.61321 1.80425 2.63905 1.75898C2.66489 1.7137 2.70208 1.67594 2.74696 1.64941C2.79183 1.62288 2.84285 1.60851 2.89497 1.6077C2.9471 1.6069 2.99853 1.61969 3.04421 1.64481L14.1214 7.73722C14.1684 7.76311 14.2077 7.80116 14.235 7.84738C14.2623 7.89361 14.2767 7.94632 14.2767 8.00001C14.2767 8.05371 14.2623 8.10642 14.235 8.15265C14.2077 8.19887 14.1684 8.23692 14.1214 8.26281L3.04421 14.3552C2.99853 14.3803 2.9471 14.3931 2.89497 14.3923C2.84285 14.3915 2.79183 14.3771 2.74696 14.3506C2.70208 14.3241 2.66489 14.2863 2.63905 14.2411C2.61321 14.1958 2.59962 14.1445 2.59961 14.0924V8.60001Z" fill="#F27B2C"/>
</svg>
