<svg width="13" height="13" viewBox="0 0 13 13" fill="none" xmlns="http://www.w3.org/2000/svg">
<path d="M4.2 1.60004V2.80004H1.2V11.2H10.8V5.80004H12V11.8C12 11.9592 11.9368 12.1118 11.8243 12.2243C11.7117 12.3368 11.5591 12.4 11.4 12.4H0.6C0.44087 12.4 0.288258 12.3368 0.175736 12.2243C0.0632141 12.1118 0 11.9592 0 11.8V2.20004C0 2.04091 0.0632141 1.8883 0.175736 1.77578C0.288258 1.66325 0.44087 1.60004 0.6 1.60004H4.2ZM10.17 2.80004L8.4 1.03004L9.2484 0.181641L12.4524 3.38564C12.5027 3.43599 12.5369 3.5001 12.5508 3.5699C12.5646 3.63969 12.5575 3.71202 12.5303 3.77776C12.5031 3.84351 12.457 3.89971 12.3978 3.93927C12.3387 3.97883 12.2692 3.99998 12.198 4.00004H7.2C6.88174 4.00004 6.57652 4.12647 6.35147 4.35151C6.12643 4.57656 6 4.88178 6 5.20004V8.80004H4.8V5.20004C4.8 4.56352 5.05286 3.95307 5.50294 3.50298C5.95303 3.0529 6.56348 2.80004 7.2 2.80004H10.17Z" fill="#162664"/>
</svg>
