<svg width="24" height="24" viewBox="0 0 24 24" fill="none" xmlns="http://www.w3.org/2000/svg">
<path d="M11.1004 7.5H12.9004V16.5H11.1004V7.5ZM14.7004 11.1H16.5004V16.5H14.7004V11.1ZM7.50039 12.9H9.30039V16.5H7.50039V12.9ZM14.7004 4.8H5.70039V19.2H18.3004V8.4H14.7004V4.8ZM3.90039 3.8928C3.90039 3.3996 4.30269 3 4.79949 3H15.6004L20.1004 7.5V20.0937C20.1012 20.2119 20.0788 20.3291 20.0343 20.4386C19.9898 20.5481 19.9242 20.6478 19.8412 20.7319C19.7583 20.8161 19.6595 20.8831 19.5506 20.9291C19.4418 20.9751 19.3249 20.9992 19.2067 21H4.79409C4.55773 20.9984 4.33151 20.9038 4.16429 20.7367C3.99707 20.5697 3.90228 20.3436 3.90039 20.1072V3.8928Z" fill="#525866"/>
</svg>
