<svg width="22" height="20" viewBox="0 0 22 20" fill="none" xmlns="http://www.w3.org/2000/svg">
<g filter="url(#filter0_d_3011_14455)">
<path d="M4.50879 8.0001C5.07279 4.9281 7.76499 2.6001 11.0002 2.6001C14.2354 2.6001 16.927 4.9281 17.4916 8.0001C16.9276 11.0721 14.2354 13.4001 11.0002 13.4001C7.76499 13.4001 5.07339 11.0721 4.50879 8.0001V8.0001ZM11.0002 11.0001C11.7958 11.0001 12.5589 10.684 13.1215 10.1214C13.6841 9.55881 14.0002 8.79575 14.0002 8.0001C14.0002 7.20445 13.6841 6.44139 13.1215 5.87878C12.5589 5.31617 11.7958 5.0001 11.0002 5.0001C10.2045 5.0001 9.44148 5.31617 8.87887 5.87878C8.31626 6.44139 8.00019 7.20445 8.00019 8.0001C8.00019 8.79575 8.31626 9.55881 8.87887 10.1214C9.44148 10.684 10.2045 11.0001 11.0002 11.0001ZM11.0002 9.8001C10.5228 9.8001 10.065 9.61046 9.7274 9.27289C9.38983 8.93532 9.20019 8.47749 9.20019 8.0001C9.20019 7.52271 9.38983 7.06487 9.7274 6.72731C10.065 6.38974 10.5228 6.2001 11.0002 6.2001C11.4776 6.2001 11.9354 6.38974 12.273 6.72731C12.6105 7.06487 12.8002 7.52271 12.8002 8.0001C12.8002 8.47749 12.6105 8.93532 12.273 9.27289C11.9354 9.61046 11.4776 9.8001 11.0002 9.8001Z" fill="#375DFB"/>
</g>
<defs>
<filter id="filter0_d_3011_14455" x="-1" y="0" width="24" height="24" filterUnits="userSpaceOnUse" color-interpolation-filters="sRGB">
<feFlood flood-opacity="0" result="BackgroundImageFix"/>
<feColorMatrix in="SourceAlpha" type="matrix" values="0 0 0 0 0 0 0 0 0 0 0 0 0 0 0 0 0 0 127 0" result="hardAlpha"/>
<feOffset dy="4"/>
<feGaussianBlur stdDeviation="2"/>
<feComposite in2="hardAlpha" operator="out"/>
<feColorMatrix type="matrix" values="0 0 0 0 0 0 0 0 0 0 0 0 0 0 0 0 0 0 0.25 0"/>
<feBlend mode="normal" in2="BackgroundImageFix" result="effect1_dropShadow_3011_14455"/>
<feBlend mode="normal" in="SourceGraphic" in2="effect1_dropShadow_3011_14455" result="shape"/>
</filter>
</defs>
</svg>
