<svg width="10" height="3" viewBox="0 0 10 3" fill="none" xmlns="http://www.w3.org/2000/svg">
<path d="M1.11543 2.09446C0.843647 2.09446 0.609983 1.99834 0.414433 1.80611C0.218884 1.61056 0.121109 1.37524 0.121109 1.10014C0.121109 0.828362 0.218884 0.596354 0.414433 0.404119C0.609983 0.20857 0.843647 0.110795 1.11543 0.110795C1.38721 0.110795 1.62087 0.20857 1.81642 0.404119C2.01197 0.596354 2.10975 0.828362 2.10975 1.10014C2.10975 1.28243 2.06334 1.44981 1.97054 1.60227C1.88105 1.75142 1.76173 1.87074 1.61259 1.96023C1.46344 2.04972 1.29772 2.09446 1.11543 2.09446ZM4.99627 2.09446C4.72449 2.09446 4.49083 1.99834 4.29528 1.80611C4.09973 1.61056 4.00195 1.37524 4.00195 1.10014C4.00195 0.828362 4.09973 0.596354 4.29528 0.404119C4.49083 0.20857 4.72449 0.110795 4.99627 0.110795C5.26805 0.110795 5.50172 0.20857 5.69727 0.404119C5.89281 0.596354 5.99059 0.828362 5.99059 1.10014C5.99059 1.28243 5.94419 1.44981 5.85139 1.60227C5.7619 1.75142 5.64258 1.87074 5.49343 1.96023C5.34428 2.04972 5.17856 2.09446 4.99627 2.09446ZM8.87712 2.09446C8.60534 2.09446 8.37167 1.99834 8.17612 1.80611C7.98057 1.61056 7.8828 1.37524 7.8828 1.10014C7.8828 0.828362 7.98057 0.596354 8.17612 0.404119C8.37167 0.20857 8.60534 0.110795 8.87712 0.110795C9.1489 0.110795 9.38256 0.20857 9.57811 0.404119C9.77366 0.596354 9.87143 0.828362 9.87143 1.10014C9.87143 1.28243 9.82503 1.44981 9.73223 1.60227C9.64274 1.75142 9.52342 1.87074 9.37427 1.96023C9.22513 2.04972 9.05941 2.09446 8.87712 2.09446Z" fill="#525866"/>
</svg>
